<?xml version="1.0" encoding="utf-8"?>
<!-- Generator: Adobe Illustrator 28.3.0, SVG Export Plug-In . SVG Version: 6.00 Build 0)  -->
<svg version="1.1" id="Capa_1" xmlns="http://www.w3.org/2000/svg" xmlns:xlink="http://www.w3.org/1999/xlink" x="0px" y="0px"
	 viewBox="0 0 300 150" style="enable-background:new 0 0 300 150;" xml:space="preserve">
<style type="text/css">
	.st0{opacity:0.39;fill:url(#SVGID_1_);}
	.st1{fill:none;stroke:#FFFFFF;stroke-width:2.3976;stroke-miterlimit:10;}
	.st2{fill:#FFFFFF;}
	.st3{font-family:'Montserrat-Bold';}
	.st4{font-size:77.3604px;}
	.st5{font-family:'Montserrat-Medium';}
	.st6{font-size:20.3794px;}
</style>
<g>
	
		<radialGradient id="SVGID_1_" cx="-1917.1202" cy="14753.1738" r="150.1577" gradientTransform="matrix(0.615 0 0 0.1103 1364.2136 -1502.1162)" gradientUnits="userSpaceOnUse">
		<stop  offset="0" style="stop-color:#242424"/>
		<stop  offset="3.816652e-02" style="stop-color:#343434;stop-opacity:0.9618"/>
		<stop  offset="0.1775" style="stop-color:#696969;stop-opacity:0.8225"/>
		<stop  offset="0.3185" style="stop-color:#979797;stop-opacity:0.6815"/>
		<stop  offset="0.4585" style="stop-color:#BDBDBD;stop-opacity:0.5415"/>
		<stop  offset="0.5974" style="stop-color:#DADADA;stop-opacity:0.4026"/>
		<stop  offset="0.7346" style="stop-color:#EEEEEE;stop-opacity:0.2654"/>
		<stop  offset="0.8697" style="stop-color:#FBFBFB;stop-opacity:0.1303"/>
		<stop  offset="1" style="stop-color:#FFFFFF;stop-opacity:0"/>
	</radialGradient>
	<path class="st0" d="M277.6,125.2c0,9.1-41.3,16.6-92.4,16.6s-92.4-7.4-92.4-16.6c0-9.1,41.3-16.6,92.4-16.6S277.6,116,277.6,125.2
		z"/>
	<g>
		<circle id="XMLID_00000111149189584974328800000007293121888651368584_" class="st1" cx="172.8" cy="42.2" r="4.5"/>
		<path id="XMLID_00000113337822441985213190000006252938381491753364_" class="st2" d="M179.7,8.3c-21.8,0-40.9,11.9-51.1,29.5
			c4.2-2.7,9-4.5,14.1-5.2c0.4-0.4,0.8-0.8,1.2-1.2c9.6-9.6,22.3-14.8,35.8-14.8c13.5,0,26.3,5.3,35.8,14.8
			c9.6,9.6,14.8,22.3,14.8,35.8c0,13.5-5.3,26.3-14.8,35.8c-9.6,9.6-19.3,14.6-32.8,14.6s-26.5-4.9-36.1-14.5
			c-9.6-9.6-13.6-22.3-13.6-35.8l-12.2-0.2c0,32.6,26.4,59,59,59s59-26.4,59-59S212.2,8.3,179.7,8.3z"/>
		<text transform="matrix(1 0 0 1 22.4661 96.7267)" class="st2 st3 st4">360</text>
		<text transform="matrix(1 0 0 1 24.1038 34.0749)" class="st2 st5 st6">OBERÓN</text>
	</g>
</g>
</svg>
