<?xml version="1.0" encoding="UTF-8"?>
<svg xmlns="http://www.w3.org/2000/svg" xmlns:xlink="http://www.w3.org/1999/xlink" version="1.1" viewBox="0 0 32 32">
  <defs>
    <style>
      .cls-1 {
        fill: #1450c8;
      }

      .cls-1, .cls-2, .cls-3, .cls-4, .cls-5, .cls-6, .cls-7, .cls-8, .cls-9, .cls-10, .cls-11, .cls-12, .cls-13 {
        stroke-width: 0px;
      }

      .cls-2 {
        fill: url(#radial-gradient-3);
        opacity: 0;
      }

      .cls-2, .cls-14, .cls-13 {
        mix-blend-mode: screen;
      }

      .cls-3 {
        fill: #0afd02;
      }

      .cls-4 {
        fill: url(#linear-gradient);
      }

      .cls-5 {
        fill: url(#radial-gradient);
      }

      .cls-6 {
        fill: #537fd7;
      }

      .cls-7 {
        fill: #1550c8;
      }

      .cls-8 {
        fill: url(#radial-gradient-2);
      }

      .cls-9 {
        fill: url(#Degradado_sin_nombre_2);
      }

      .cls-10 {
        fill: #1752c9;
      }

      .cls-14 {
        opacity: .7;
      }

      .cls-11 {
        fill: #fefefe;
      }

      .cls-12 {
        fill: #fcfcfe;
      }

      .cls-15 {
        isolation: isolate;
      }

      .cls-16 {
        mix-blend-mode: multiply;
        opacity: .2;
      }

      .cls-13 {
        fill: url(#linear-gradient-2);
        opacity: .6;
      }
    </style>
    <linearGradient id="Degradado_sin_nombre_2" data-name="Degradado sin nombre 2" x1="16.5" y1="3.1" x2="16.5" y2="29.9" gradientUnits="userSpaceOnUse">
      <stop offset="0" stop-color="#297b8a"/>
      <stop offset="1" stop-color="#251d45"/>
    </linearGradient>
    <linearGradient id="linear-gradient" x1="16.5" y1=".7" x2="16.5" y2="20.2" gradientUnits="userSpaceOnUse">
      <stop offset="0" stop-color="#231f3f"/>
      <stop offset="1" stop-color="#fff"/>
    </linearGradient>
    <radialGradient id="radial-gradient" cx="16.5" cy="12.6" fx="16.5" fy="12.6" r="7.3" gradientUnits="userSpaceOnUse">
      <stop offset="0" stop-color="#fff"/>
      <stop offset="0" stop-color="#fff"/>
      <stop offset=".3" stop-color="#f4f4f4"/>
      <stop offset=".6" stop-color="#f0f0f0"/>
      <stop offset=".7" stop-color="#e6e6e6"/>
      <stop offset=".8" stop-color="#cccccd"/>
      <stop offset=".9" stop-color="#a1a3a4"/>
      <stop offset="1" stop-color="#7b7d7f"/>
    </radialGradient>
    <radialGradient id="radial-gradient-2" cx="16.3" cy="12.7" fx="16.3" fy="12.7" r="6.7" gradientUnits="userSpaceOnUse">
      <stop offset="0" stop-color="#fff"/>
      <stop offset="0" stop-color="#fff"/>
      <stop offset=".3" stop-color="#fcfcfc"/>
      <stop offset=".4" stop-color="#f4f4f4"/>
      <stop offset=".6" stop-color="#e7e7e7"/>
      <stop offset=".7" stop-color="#d3d3d3"/>
      <stop offset=".8" stop-color="#bbb"/>
      <stop offset=".8" stop-color="#9c9c9c"/>
      <stop offset=".9" stop-color="#787878"/>
      <stop offset="1" stop-color="#4f4f4f"/>
      <stop offset="1" stop-color="#4e4e4e"/>
    </radialGradient>
    <radialGradient id="radial-gradient-3" cx="16.8" cy="-58.4" fx="16.8" fy="-58.4" r="5.1" gradientTransform="translate(-2.4 98.2) scale(1.1 1.5)" gradientUnits="userSpaceOnUse">
      <stop offset="0" stop-color="#e2e0dd"/>
      <stop offset="0" stop-color="#eeedeb"/>
      <stop offset="0" stop-color="#fff"/>
      <stop offset=".2" stop-color="#f0f0f0"/>
      <stop offset=".6" stop-color="#c9c9c9"/>
      <stop offset="1" stop-color="#999"/>
    </radialGradient>
    <linearGradient id="linear-gradient-2" x1="16.5" y1="1.5" x2="16.5" y2="12.9" gradientUnits="userSpaceOnUse">
      <stop offset="0" stop-color="#fff"/>
      <stop offset="0" stop-color="#fdf5f5"/>
      <stop offset=".2" stop-color="#f8dcdc"/>
      <stop offset=".4" stop-color="#f0b3b2"/>
      <stop offset=".6" stop-color="#e67a78"/>
      <stop offset=".9" stop-color="#d83230"/>
      <stop offset="1" stop-color="#d00300"/>
    </linearGradient>
  </defs>
  <g class="cls-15">
    <g id="Capa_1" data-name="Capa 1">
      <g>
        <path class="cls-3" d="M27.3,13c0,6-10.3,17.3-10.8,17.3S5.7,19,5.7,13,10.5,2.2,16.5,2.2s10.8,4.8,10.8,10.8Z"/>
        <g>
          <path class="cls-9" d="M26.6,13.2c0,5.6-9.6,16.1-10.1,16.1S6.4,18.8,6.4,13.2,10.9,3.1,16.5,3.1s10.1,4.5,10.1,10.1Z"/>
          <path class="cls-4" d="M24.2,12.6c0,4.2-3.4,7.7-7.7,7.7s-7.7-3.4-7.7-7.7,3.4-7.7,7.7-7.7,7.7,3.4,7.7,7.7Z"/>
          <g class="cls-14">
            <path class="cls-5" d="M23.8,12.6c0,4.1-3.3,7.3-7.3,7.3s-7.3-3.3-7.3-7.3,3.3-7.3,7.3-7.3,7.3,3.3,7.3,7.3Z"/>
          </g>
          <g class="cls-16">
            <path class="cls-8" d="M23.2,12.6c0,3.7-3,6.7-6.7,6.7s-6.7-3-6.7-6.7,3-6.7,6.7-6.7,6.7,3,6.7,6.7Z"/>
          </g>
          <path class="cls-2" d="M23,11.7c0,3.5-2.9,6.3-6.6,6.3s-6.6-2.8-6.6-6.3,2.9-6.3,6.6-6.3,6.6,2.8,6.6,6.3Z"/>
          <path class="cls-13" d="M16.5,4c4.9,0,8.9,3.8,9.1,8.5,0,0,0-.2,0-.3,0-4.9-4.1-8.8-9.1-8.8S7.4,7.4,7.4,12.3s0,.2,0,.3c.2-4.7,4.2-8.5,9.1-8.5Z"/>
        </g>
        <g>
          <path class="cls-1" d="M12.5,15.4c-.6-.4-1.1-.9-1.5-1.5-.6-1-.3-2,.4-2.7.6-.5,1.3-.8,2.1-1,1.1-.3,2.3-.3,3.4-.3.9,0,1.8.1,2.6.4.7.2,1.4.5,1.9,1,.6.6.9,1.7.3,2.6-.5.7-1.1,1.3-1.9,1.7-.1,0-.2.1-.3.2,0,0-.1,0-.2,0-.7-.7-1.4-1.4-2.1-2.1-.1-.1-.1-.2,0-.3,0,0,.1-.2.3-.2.1,0,.2,0,.2-.1,0-.1.1-.3.3-.4,0,0,0,0,.1-.1.2-.2.3-.2.4,0,0,.1,0,.2-.1.3,0,.1,0,.2,0,.3,0,0,.2,0,.3,0,0,0,.2-.1.3-.2.1-.1.2-.1.2,0,0,0,0,0,0,0,0,.2.2.3.4.2.1,0,.2-.1.3-.2,0,0,0,0,.1,0,0,0,0,0,0,.1,0,.3.2.4.4.3.2,0,.4-.2.5-.4,0,0,0-.1,0-.1,0,0,0,0-.1,0,0,0-.1.1-.2.2,0,0-.2.1-.3,0-.1,0,0-.2,0-.3,0-.2.1-.3.2-.4,0-.1.1-.3.2-.4,0,0,0-.1,0-.2,0,0,0-.1,0-.1,0,0,0,0-.1,0,0,0-.1,0-.2,0-.1-.1-.3-.1-.5,0-.2,0-.4.3-.5.5-.2.2-.3.4-.5.6,0,0,0,0-.1,0,0,0-.1,0-.1,0,0,0,0-.1,0-.2.1-.2.3-.4.4-.7,0-.1,0-.2,0-.3,0-.1-.2,0-.3,0-.1,0-.3.2-.4.3,0,0,0,0-.2,0,0,0,0,0,0,0,0,0,0-.1,0-.2,0,0,0-.2-.1-.2,0,0-.1,0-.1.1-.2.4-.4.7-.7,1,0,0-.1.1-.2.2-.1,0-.2,0-.1-.1,0,0,0,0,0-.1.1-.2.2-.4.3-.6,0,0,0-.2,0-.2,0,0,0-.1-.1-.1,0,0,0,0,0,0-.1.3-.3.5-.5.7,0,0,0,0,0,0,0,0,0,0-.1,0,0,0,0,0,0,0,0,0,0-.2,0-.2,0-.1,0-.3,0-.4,0-.2-.2-.3-.4-.2-.1,0-.2.2-.3.3,0,0,0,.1-.2,0,0,0,0-.1,0-.2,0,0,0-.2,0-.3,0,0,0,0-.1,0,0,0,0,0,0,.1,0,.2-.1.4-.2.5-.2.3-.4.5-.7.8,0,0,0,0,0,0,0,0-.2.1-.3,0,0,0,0-.2,0-.3,0,0,.1-.1.2-.2.3-.3.6-.6.8-1,0-.1.1-.2.2-.3,0-.2,0-.3,0-.4-.1,0-.3,0-.4,0-.2.1-.3.3-.4.5-.2.3-.3.7-.5,1-.1.3-.3.5-.6.7,0,0-.2,0-.2,0,0,0,0-.1,0-.2,0-.3.2-.5.3-.7,0,0,0-.1,0-.2,0,0,0-.1-.1-.1,0,0,0,0-.1,0-.1.3-.3.5-.5.7-.2.2-.4.4-.6.6-.1,0-.2.1-.4,0-.1-.1-.2-.2-.1-.4,0-.3.2-.5.3-.8.3-.3.6-.6,1.1-.6.2,0,.4,0,.6.1,0,0,0,0,.1,0,0,0,0-.1,0-.2-.1-.1-.3-.2-.5-.2-.7,0-1.2.3-1.6.7-.3.3-.5.7-.4,1.2,0,.4.4.7.8.4.2,0,.3-.2.5-.3,0,0,0,0,.1-.1,0,0,0,0,.1,0,0,0,0,0,0,.1,0,0,0,0,0,0,0,.2.1.4.3.3.1,0,.2-.1.3-.2,0,0,.1-.1.2-.1,0,0,0,0,.1,0,0,0,.2.2.2.2,0,0,0,0,0,0,0,0,0,.2,0,.2-.6.6-1.1,1.1-1.7,1.7,0,0,0,0,0,0Z"/>
          <path class="cls-1" d="M12.5,15.4c0,0,0-.1.1-.2.5-.5,1-1,1.5-1.5q.2-.2,0-.4s0,0,0,0c.3,0,.4-.2.6-.4,0,0,0-.1.1,0,0,0,0,.1,0,.2-.1.2-.2.4-.3.6,0,0,0,.2-.1.3,0,0,0,.2.1.2.1,0,.1,0,.2-.1.2-.4.4-.9.6-1.3.2-.3.4-.6.7-.8,0,0,.1-.1.2,0,0,0,0,.1,0,.2,0,.3-.2.6-.5.8-.1,0-.2.1-.3.1,0,0,0,0-.1,0,0,0,0,0,0,.1,0,0,.2,0,.3,0,.2,0,.4-.2.6-.3,0,0,.1-.1.2-.1,0,0,0,0,0,0,0,0,0,0,0,0,0,0,0,0,0,.1,0,0,0,.2,0,.3,0,0,.2,0,.3,0,.1,0,.2-.1.3-.2,0,0,0,0,.1-.1,0,0,0,0,0,0,0,.1,0,.2,0,.3,0,0-.2.2-.3.3,0,0,0,0,0,.1.7.7,1.5,1.5,2.2,2.2,0,0,0,0,0,0-.7.4-1.5.7-2.3.8-1.2.2-2.3,0-3.4-.5-.5-.2-1-.5-1.4-.8Z"/>
          <path class="cls-11" d="M17.5,13.2c0-.1,0-.2,0-.4-.2.2-.3.3-.5.4-.1,0-.2,0-.3,0,0,0-.1-.2,0-.3,0,0,0-.2.1-.3-.2.1-.3.2-.4.3-.2.1-.3.2-.5.3,0,0-.2,0-.3,0,0,0-.1-.1,0-.2,0,0,.1,0,.2,0,.2,0,.3,0,.4-.2.2-.2.3-.4.4-.7,0,0,0-.1,0-.2,0,0-.1,0-.2,0-.4.3-.6.7-.9,1.1-.2.3-.3.6-.4.9,0,0,0,.2-.2.2-.1,0-.2-.2-.2-.3,0,0,0-.1,0-.2.1-.3.3-.5.4-.8-.3.2-.5.5-.8.5-.1,0-.2-.1-.2-.2,0,0,0,0,0,0-.1.1-.2.2-.4.3-.1,0-.3.1-.4,0-.1-.1-.1-.3,0-.4,0,0,0,0,0,0,0,0,0,0,0,0,0,0-.1.2-.2.3-.1.1-.3.3-.5.4-.4.2-.7,0-.8-.4,0-.2,0-.3,0-.5.2-.8,1-1.5,1.9-1.5.2,0,.3,0,.5,0,.1,0,.2.1.3.2,0,0,0,.1,0,.2,0,0,0,0-.1,0-.3-.2-.7-.2-1.1,0-.5.2-.9.6-1,1.2,0,0,0,.2,0,.3,0,.2.2.2.3.2.2,0,.3-.2.5-.3.3-.3.5-.6.7-1,0,0,0-.2.2-.1.1,0,.2.2.1.3-.1.2-.2.5-.4.7,0,0-.1.2,0,.3.1,0,.2,0,.3-.1.2-.2.4-.5.5-.8.1-.4.3-.8.5-1.1,0-.1.2-.2.3-.3.1,0,.2,0,.4,0,.1,0,.1.2.1.3,0,.1,0,.2-.1.4-.3.4-.6.8-1,1.2,0,0,0,0,0,0,0,0-.1.2,0,.3,0,.1.2,0,.2,0,.4-.3.8-.7,1-1.3,0,0,0-.2.2-.2.1,0,.2.2.2.3,0,0,0,.2,0,.3.1-.1.2-.2.3-.3.1,0,.2-.2.4-.1.2,0,.2.3.2.4,0,.1,0,.3-.1.4,0,0,0,0,0,.1.3-.2.5-.5.6-.8,0,0,0-.2.1-.1,0,0,.2,0,.2.2,0,0,0,.2,0,.2-.1.2-.3.5-.4.7,0,0,0,.1,0,.2,0,0,.1,0,.2,0,.4-.3.6-.7.8-1.1,0,0,0-.2.1-.1.1,0,.2,0,.2.2,0,0,0,.1,0,.2,0,0,0,0,0,0,.2-.2.4-.3.6-.4.1,0,.2,0,.3,0,0,0,.1.2,0,.3-.1.2-.3.4-.4.7,0,0-.1.2-.1.3,0,0,.1,0,.2,0,.2-.2.3-.4.5-.6.1-.2.3-.4.5-.5.3-.1.5-.1.7.1,0,0,0-.2.2-.1.1,0,.1.2,0,.3-.1.2-.2.4-.4.6,0,0-.1.2-.1.3,0,0,0,.1,0,.2,0,0,.1,0,.2,0,.1,0,.2-.2.3-.3,0,0,0-.1.2,0,0,0,0,.1,0,.2-.2.3-.4.5-.8.5-.2,0-.4-.1-.3-.3,0,0,0,0,0-.1-.1,0-.2.2-.3.3-.1,0-.2.2-.4,0-.2,0-.2-.2-.2-.4,0,0,0,0,0-.1-.2.1-.3.3-.4.3-.2.1-.4,0-.4-.2,0,0,0-.1,0-.2,0,0,0-.2.1-.3,0-.2.2-.3.2-.4,0,0,0-.1.1-.2-.4.2-.6.5-.8.8-.1.1-.2.3-.3.4,0,.2,0,.2-.3,0Z"/>
          <path class="cls-1" d="M18,12.7c.2-.3.5-.6.9-.8,0,.3-.2.5-.4.7,0,0,0,0,0,0q-.2-.2-.3,0s0,0-.1.1Z"/>
          <path class="cls-12" d="M17.5,11.1c0-.2,0-.3.2-.3.1,0,.3.1.3.2,0,.1-.2.3-.3.3-.2,0-.1-.1-.2-.2Z"/>
          <path class="cls-6" d="M18.4,12s0,0,0,0c0,0,0,0,0-.1,0,0,0,0,0,0Z"/>
          <path class="cls-1" d="M13.8,13.1s0,0,0,0c0,0,0,0,0,.1,0,0,0,0,0,0Z"/>
          <path class="cls-11" d="M17,16.1c-.1,0-.2,0-.3,0-.3-.2-.5-.4-.8-.6,0,0-.1,0-.2,0,0,0,0,.1,0,.1.2.2.5.4.7.6-.1,0-.2,0-.3,0-.2-.2-.4-.3-.6-.5-.1-.1-.3-.2-.5-.2.3.3.6.5,1,.7-.1,0-.2,0-.3,0-.3-.2-.5-.4-.8-.6,0,0,0,0,0,0,0,0-.1,0-.2,0,0,0,0,0,0,0,.2.1.4.3.6.4,0,0,0,0,.1.1-.1,0-.2,0-.3-.1-.2-.1-.4-.3-.6-.4,0,0,0-.1-.1,0,0,0,0,.1,0,.2,0,0,.2.1.3.2-.4-.1-.7-.3-1.1-.4,0-.1.2,0,.2,0,.1,0,.2,0,.3,0,.1-.1.3-.2.5-.2,0,0,0,0,.1,0,0,0,.2-.1.2-.2.3-.1.5-.3.5-.6,0,0,0,0,0,0,.2-.1.3-.3.5-.5.1-.2.4-.2.5,0,.2.2.4.5.5.7.1.2.4.3.5.5,0,0,0,0,0,0,.1,0,.2,0,.3,0,.2.2.5.2.7.3-.2.2-.4,0-.6,0,0,0,0,0,0,0q-.2-.1-.3,0c0,0,0,0-.1,0-.2-.2-.4-.5-.7-.6,0,0,0-.1-.1-.2,0-.2-.2-.5-.4-.6,0,0-.2,0-.3-.1,0,0,0,.1,0,.2.1.1.2.3,0,.4,0,0,0,.1,0,.2,0,.1,0,.2,0,.3,0,0,.2.1.1.3,0,0-.1,0-.2-.1,0,0-.1,0-.1,0,0,0,0,0,0,.1.1.1.3.2.4.3,0,0,.1.2.1.3-.2-.2-.4-.3-.6-.5,0,0,0,0,0,0,0,0-.1,0-.1,0,0,0,0,0,0,0,.3.2.5.4.8.6,0,0,0,0,.1.1Z"/>
          <path class="cls-7" d="M19.5,12.8c0-.3.3-.8.6-.9,0,0,.2,0,.3,0,0,0,.1,0,0,.2-.2.3-.4.6-.7.8,0,0-.1,0-.2,0,0,0,0,0,0-.2Z"/>
          <path class="cls-10" d="M14.6,12c.1-.3.3-.6.5-.9,0,0,0-.1.1,0,0,0,0,.1,0,.2-.2.3-.4.6-.6.8Z"/>
        </g>
      </g>
    </g>
  </g>
</svg>