<?xml version="1.0" encoding="utf-8"?>
<!-- Generator: Adobe Illustrator 28.3.0, SVG Export Plug-In . SVG Version: 6.00 Build 0)  -->
<svg version="1.1" id="Capa_1" xmlns="http://www.w3.org/2000/svg" xmlns:xlink="http://www.w3.org/1999/xlink" x="0px" y="0px"
	 viewBox="0 0 32 32" style="enable-background:new 0 0 32 32;" xml:space="preserve">
<style type="text/css">
	.st0{fill:#0AFD02;}
	.st1{fill:url(#SVGID_1_);}
	.st2{fill:url(#SVGID_00000152223080125965759140000014430187715069902246_);}
	.st3{opacity:0.7;}
	.st4{fill:url(#SVGID_00000172430027408001923950000014894931869652815253_);}
	.st5{opacity:0.2;}
	.st6{fill:url(#SVGID_00000154408719802865272770000002872301880624142265_);}
	.st7{opacity:0.1;fill:url(#SVGID_00000183938775083066077820000014707735990258084763_);}
	.st8{opacity:0.6;fill:url(#SVGID_00000101071579143830284020000014445019020245348225_);}
	.st9{fill:#998A00;}
</style>
<g>
	<g>
		<g>
			<g>
				<path class="st0" d="M26.8,12.8c0,6-10.3,17.3-10.8,17.3c-0.6,0-10.8-11.3-10.8-17.3C5.2,6.8,10,1.9,16,1.9
					C22,1.9,26.8,6.8,26.8,12.8z"/>
			</g>
		</g>
	</g>
	<g>
		<g>
			<g>
				<linearGradient id="SVGID_1_" gradientUnits="userSpaceOnUse" x1="16" y1="2.889" x2="16" y2="29.7041">
					<stop  offset="2.984639e-03" style="stop-color:#FFEC00"/>
					<stop  offset="0.1603" style="stop-color:#D4C300"/>
					<stop  offset="0.363" style="stop-color:#A29501"/>
					<stop  offset="0.555" style="stop-color:#7C7001"/>
					<stop  offset="0.7307" style="stop-color:#605602"/>
					<stop  offset="0.8846" style="stop-color:#4F4602"/>
					<stop  offset="1" style="stop-color:#494002"/>
				</linearGradient>
				<path class="st1" d="M26.1,13c0,5.6-9.6,16.2-10.1,16.2C15.5,29.1,5.9,18.6,5.9,13C5.9,7.4,10.4,2.9,16,2.9
					C21.6,2.9,26.1,7.4,26.1,13z"/>
			</g>
			
				<linearGradient id="SVGID_00000168105548261334018140000009497548728699047589_" gradientUnits="userSpaceOnUse" x1="16.0003" y1="0.4667" x2="16.0003" y2="19.9626">
				<stop  offset="3.370800e-02" style="stop-color:#231F3F"/>
				<stop  offset="1" style="stop-color:#FFFFFF"/>
			</linearGradient>
			<path style="fill:url(#SVGID_00000168105548261334018140000009497548728699047589_);" d="M23.7,12.4c0,4.2-3.4,7.7-7.7,7.7
				c-4.2,0-7.7-3.4-7.7-7.7c0-4.2,3.4-7.7,7.7-7.7C20.2,4.7,23.7,8.1,23.7,12.4z"/>
			<g class="st3">
				
					<radialGradient id="SVGID_00000031889143329239877990000005903192330579142797_" cx="16.0006" cy="12.3837" r="7.3589" gradientUnits="userSpaceOnUse">
					<stop  offset="0" style="stop-color:#FFFFFF"/>
					<stop  offset="0" style="stop-color:#FFFFFF"/>
					<stop  offset="0.2799" style="stop-color:#F5F5F5"/>
					<stop  offset="0.5934" style="stop-color:#F0F0F0"/>
					<stop  offset="0.6556" style="stop-color:#E6E6E7"/>
					<stop  offset="0.7602" style="stop-color:#CCCDCD"/>
					<stop  offset="0.8936" style="stop-color:#A2A3A4"/>
					<stop  offset="1" style="stop-color:#7B7D7F"/>
				</radialGradient>
				<path style="fill:url(#SVGID_00000031889143329239877990000005903192330579142797_);" d="M23.4,12.4c0,4.1-3.3,7.4-7.4,7.4
					c-4.1,0-7.4-3.3-7.4-7.4C8.6,8.3,11.9,5,16,5C20.1,5,23.4,8.3,23.4,12.4z"/>
			</g>
			<g class="st5">
				
					<radialGradient id="SVGID_00000036940917059549163740000001950684499590184330_" cx="15.8135" cy="12.4388" r="6.7009" gradientUnits="userSpaceOnUse">
					<stop  offset="0" style="stop-color:#FFFFFF"/>
					<stop  offset="0" style="stop-color:#FFFFFF"/>
					<stop  offset="0.2865" style="stop-color:#FDFDFD"/>
					<stop  offset="0.4391" style="stop-color:#F5F5F5"/>
					<stop  offset="0.5603" style="stop-color:#E7E7E7"/>
					<stop  offset="0.6648" style="stop-color:#D4D4D4"/>
					<stop  offset="0.7586" style="stop-color:#BBBBBB"/>
					<stop  offset="0.8449" style="stop-color:#9C9C9C"/>
					<stop  offset="0.9236" style="stop-color:#797979"/>
					<stop  offset="0.9975" style="stop-color:#505050"/>
					<stop  offset="1" style="stop-color:#4E4E4E"/>
				</radialGradient>
				<path style="fill:url(#SVGID_00000036940917059549163740000001950684499590184330_);" d="M22.7,12.4c0,3.7-3,6.7-6.7,6.7
					c-3.7,0-6.7-3-6.7-6.7c0-3.7,3-6.7,6.7-6.7C19.7,5.7,22.7,8.7,22.7,12.4z"/>
			</g>
			
				<radialGradient id="SVGID_00000056403423897462462890000009316174610104627605_" cx="16.3761" cy="-58.5779" r="5.1262" gradientTransform="matrix(1.1221 0 0 1.4802 -2.3755 98.1875)" gradientUnits="userSpaceOnUse">
				<stop  offset="0" style="stop-color:#E2E0DD"/>
				<stop  offset="0" style="stop-color:#EFEDEC"/>
				<stop  offset="0" style="stop-color:#FFFFFF"/>
				<stop  offset="0.201" style="stop-color:#F0F0F0"/>
				<stop  offset="0.5868" style="stop-color:#C9C9C9"/>
				<stop  offset="1" style="stop-color:#999999"/>
			</radialGradient>
			<path style="opacity:0.1;fill:url(#SVGID_00000056403423897462462890000009316174610104627605_);" d="M22.6,11.5
				c0,3.5-2.9,6.3-6.6,6.3c-3.6,0-6.6-2.8-6.6-6.3c0-3.5,2.9-6.3,6.6-6.3C19.6,5.1,22.6,8,22.6,11.5z"/>
			
				<linearGradient id="SVGID_00000149368662919990652380000007214570207388216982_" gradientUnits="userSpaceOnUse" x1="16.0002" y1="1.2932" x2="16.0002" y2="12.7034">
				<stop  offset="0" style="stop-color:#FFFFFF"/>
				<stop  offset="8.491480e-02" style="stop-color:#FDF6F6"/>
				<stop  offset="0.2263" style="stop-color:#F9DCDC"/>
				<stop  offset="0.4066" style="stop-color:#F1B3B2"/>
				<stop  offset="0.6188" style="stop-color:#E67A79"/>
				<stop  offset="0.8552" style="stop-color:#D93330"/>
				<stop  offset="1" style="stop-color:#D00300"/>
			</linearGradient>
			<path style="opacity:0.6;fill:url(#SVGID_00000149368662919990652380000007214570207388216982_);" d="M16,3.8
				c4.9,0,9,3.8,9.1,8.6c0-0.1,0-0.2,0-0.3c0-4.9-4.1-8.9-9.1-8.9c-5,0-9.1,4-9.1,8.9c0,0.1,0,0.2,0,0.3C7,7.6,11.1,3.8,16,3.8z"/>
		</g>
	</g>
	<g>
		<circle class="st9" cx="13.5" cy="15.6" r="0.7"/>
		<circle class="st9" cx="19.5" cy="15.6" r="0.7"/>
		<path class="st9" d="M22.1,12.7l-1.4-2c-0.1-0.1-0.3-0.2-0.4-0.2H19c-0.2,0-0.3,0.1-0.3,0.3v3.2h-0.4v-4h-8.2v4.6h1.8v1h0.5
			c0-0.6,0.5-1,1-1c0.6,0,1,0.5,1,1h3.9c0-0.6,0.5-1,1-1s1,0.5,1,1h0h1.3c0.3,0,0.5-0.2,0.5-0.5v-1.7C22.3,13.2,22.3,12.9,22.1,12.7
			z M21.1,12.5h-1.6c-0.1,0-0.2-0.1-0.2-0.2v-1.1c0-0.1,0.1-0.2,0.2-0.2h0.6c0.1,0,0.2,0.1,0.3,0.1l0.8,1.2
			C21.2,12.4,21.2,12.5,21.1,12.5z"/>
	</g>
	
		<image style="overflow:visible;" width="1965" height="1110" xlink:href="../../../../ALPINA/LOGO.png"  transform="matrix(3.084714e-03 0 0 3.084714e-03 10.6896 10.4664)">
	</image>
</g>
</svg>
