<?xml version="1.0" encoding="UTF-8"?>
<svg xmlns="http://www.w3.org/2000/svg" xmlns:xlink="http://www.w3.org/1999/xlink" version="1.1" viewBox="0 0 32 40">
  <defs>
    <style>
      .cls-1 {
        fill: url(#radial-gradient-3);
        opacity: 0;
      }

      .cls-1, .cls-2, .cls-3, .cls-4, .cls-5, .cls-6, .cls-7, .cls-8, .cls-9, .cls-10, .cls-11, .cls-12, .cls-13, .cls-14, .cls-15 {
        stroke-width: 0px;
      }

      .cls-1, .cls-16, .cls-15 {
        mix-blend-mode: screen;
      }

      .cls-2 {
        fill: #0afd02;
      }

      .cls-3 {
        fill: url(#linear-gradient);
      }

      .cls-4 {
        fill: url(#radial-gradient);
      }

      .cls-5 {
        fill: url(#Degradado_sin_nombre_123-2);
      }

      .cls-6 {
        fill: url(#Degradado_sin_nombre_123-3);
      }

      .cls-7 {
        fill: url(#Degradado_sin_nombre_153-5);
      }

      .cls-8 {
        fill: url(#Degradado_sin_nombre_153-2);
      }

      .cls-9 {
        fill: url(#Degradado_sin_nombre_153-3);
      }

      .cls-10 {
        fill: url(#Degradado_sin_nombre_153-4);
      }

      .cls-11 {
        fill: url(#radial-gradient-2);
      }

      .cls-12 {
        fill: url(#Degradado_sin_nombre_4);
      }

      .cls-16 {
        opacity: .7;
      }

      .cls-17 {
        isolation: isolate;
      }

      .cls-13 {
        fill: url(#Degradado_sin_nombre_123);
      }

      .cls-14 {
        fill: url(#Degradado_sin_nombre_153);
      }

      .cls-18 {
        mix-blend-mode: multiply;
        opacity: .2;
      }

      .cls-15 {
        fill: url(#linear-gradient-2);
        opacity: .6;
      }
    </style>
    <linearGradient id="Degradado_sin_nombre_4" data-name="Degradado sin nombre 4" x1="15.5" y1="1.8" x2="15.5" y2="22.9" gradientUnits="userSpaceOnUse">
      <stop offset="0" stop-color="#297b8c"/>
      <stop offset="1" stop-color="#251d45"/>
    </linearGradient>
    <linearGradient id="linear-gradient" x1="15.5" y1="-.1" x2="15.5" y2="15.2" gradientUnits="userSpaceOnUse">
      <stop offset="0" stop-color="#231f3f"/>
      <stop offset="1" stop-color="#fff"/>
    </linearGradient>
    <radialGradient id="radial-gradient" cx="15.5" cy="9.2" fx="15.5" fy="9.2" r="5.8" gradientUnits="userSpaceOnUse">
      <stop offset="0" stop-color="#fff"/>
      <stop offset="0" stop-color="#fff"/>
      <stop offset=".3" stop-color="#f6f6f6"/>
      <stop offset=".6" stop-color="#f2f2f2"/>
      <stop offset=".7" stop-color="#e8e8e8"/>
      <stop offset=".8" stop-color="#cececf"/>
      <stop offset=".9" stop-color="#a3a5a6"/>
      <stop offset="1" stop-color="#7a7d7f"/>
    </radialGradient>
    <radialGradient id="radial-gradient-2" cx="15.4" cy="9.3" fx="15.4" fy="9.3" r="5.3" gradientUnits="userSpaceOnUse">
      <stop offset="0" stop-color="#fff"/>
      <stop offset="0" stop-color="#fff"/>
      <stop offset=".3" stop-color="#fcfcfc"/>
      <stop offset=".4" stop-color="#f4f4f4"/>
      <stop offset=".6" stop-color="#e7e7e7"/>
      <stop offset=".7" stop-color="#d3d3d3"/>
      <stop offset=".8" stop-color="#bbb"/>
      <stop offset=".8" stop-color="#9c9c9c"/>
      <stop offset=".9" stop-color="#787878"/>
      <stop offset="1" stop-color="#4f4f4f"/>
      <stop offset="1" stop-color="#4e4e4e"/>
    </radialGradient>
    <radialGradient id="radial-gradient-3" cx="15.9" cy="-58" fx="15.9" fy="-58" r="4" gradientTransform="translate(-2.4 94.3) scale(1.1 1.5)" gradientUnits="userSpaceOnUse">
      <stop offset="0" stop-color="#e5e2df"/>
      <stop offset="0" stop-color="#f1efed"/>
      <stop offset="0" stop-color="#fff"/>
      <stop offset=".2" stop-color="#f0f0f0"/>
      <stop offset=".6" stop-color="#c9c9c9"/>
      <stop offset="1" stop-color="#999"/>
    </radialGradient>
    <linearGradient id="linear-gradient-2" x1="15.5" y1=".5" x2="15.5" y2="9.5" gradientUnits="userSpaceOnUse">
      <stop offset="0" stop-color="#fff"/>
      <stop offset="0" stop-color="#fdf5f5"/>
      <stop offset=".2" stop-color="#f8dcdc"/>
      <stop offset=".4" stop-color="#f1b3b2"/>
      <stop offset=".6" stop-color="#e77a78"/>
      <stop offset=".9" stop-color="#da3330"/>
      <stop offset="1" stop-color="#d20400"/>
    </linearGradient>
    <linearGradient id="Degradado_sin_nombre_123" data-name="Degradado sin nombre 123" x1="11.8" y1="10.9" x2="19.1" y2="10.9" gradientTransform="translate(0 -.9) rotate(-.1)" gradientUnits="userSpaceOnUse">
      <stop offset=".4" stop-color="#297b8c"/>
      <stop offset="1" stop-color="#241c46"/>
    </linearGradient>
    <linearGradient id="Degradado_sin_nombre_123-2" data-name="Degradado sin nombre 123" x1="13.6" y1="10.9" x2="17.3" y2="10.9" xlink:href="#Degradado_sin_nombre_123"/>
    <linearGradient id="Degradado_sin_nombre_123-3" data-name="Degradado sin nombre 123" x1="14.1" y1="6.2" x2="16.8" y2="6.2" gradientTransform="translate(2.8 -5.5) rotate(18.6)" xlink:href="#Degradado_sin_nombre_123"/>
    <linearGradient id="Degradado_sin_nombre_153" data-name="Degradado sin nombre 153" x1="1.4" y1="29" x2="28.6" y2="29" gradientUnits="userSpaceOnUse">
      <stop offset="0" stop-color="#297b8c"/>
      <stop offset="0" stop-color="#287285"/>
      <stop offset="0" stop-color="#275871"/>
      <stop offset=".2" stop-color="#264261"/>
      <stop offset=".3" stop-color="#253154"/>
      <stop offset=".4" stop-color="#25254b"/>
      <stop offset=".5" stop-color="#251e46"/>
      <stop offset="1" stop-color="#251d45"/>
    </linearGradient>
    <linearGradient id="Degradado_sin_nombre_153-2" data-name="Degradado sin nombre 153" x1="22.9" y1="35" x2="31.4" y2="35" xlink:href="#Degradado_sin_nombre_153"/>
    <linearGradient id="Degradado_sin_nombre_153-3" data-name="Degradado sin nombre 153" x1=".6" y1="35" x2="9.1" y2="35" xlink:href="#Degradado_sin_nombre_153"/>
    <linearGradient id="Degradado_sin_nombre_153-4" data-name="Degradado sin nombre 153" x1="16" y1="35" x2="20.9" y2="35" xlink:href="#Degradado_sin_nombre_153"/>
    <linearGradient id="Degradado_sin_nombre_153-5" data-name="Degradado sin nombre 153" x1="7.4" y1="33.7" x2="9.1" y2="33.7" xlink:href="#Degradado_sin_nombre_153"/>
  </defs>
  <g class="cls-17">
    <g id="Capa_1" data-name="Capa 1">
      <g>
        <path class="cls-2" d="M24.3,9.5c0,4.8-8.3,13.9-8.7,13.9S6.8,14.3,6.8,9.5,10.7.7,15.5.7s8.7,3.9,8.7,8.7Z"/>
        <g>
          <path class="cls-12" d="M23.5,9.7c0,4.4-7.5,12.7-8,12.7s-8-8.3-8-12.7S11.1,1.7,15.5,1.7s8,3.6,8,8Z"/>
          <path class="cls-3" d="M21.6,9.2c0,3.3-2.7,6.1-6.1,6.1s-6.1-2.7-6.1-6.1,2.7-6.1,6.1-6.1,6.1,2.7,6.1,6.1Z"/>
          <g class="cls-16">
            <path class="cls-4" d="M21.3,9.2c0,3.2-2.6,5.8-5.8,5.8s-5.8-2.6-5.8-5.8,2.6-5.8,5.8-5.8,5.8,2.6,5.8,5.8Z"/>
          </g>
          <g class="cls-18">
            <path class="cls-11" d="M20.8,9.2c0,2.9-2.4,5.3-5.3,5.3s-5.3-2.4-5.3-5.3,2.4-5.3,5.3-5.3,5.3,2.4,5.3,5.3Z"/>
          </g>
          <path class="cls-1" d="M20.7,8.5c0,2.8-2.3,5-5.2,5s-5.2-2.2-5.2-5,2.3-5,5.2-5,5.2,2.2,5.2,5Z"/>
          <path class="cls-15" d="M15.5,2.5c3.9,0,7,3,7.2,6.7,0,0,0-.2,0-.2,0-3.8-3.2-7-7.2-7s-7.2,3.1-7.2,7,0,.2,0,.2c.1-3.7,3.3-6.7,7.2-6.7Z"/>
        </g>
        <g>
          <g>
            <path class="cls-13" d="M15.4,6.4c-2,0-3.6,1.6-3.6,3.6s1.6,3.6,3.6,3.6,3.6-1.6,3.6-3.6c0-2-1.6-3.6-3.6-3.6ZM15.4,12.5c-1.4,0-2.5-1.1-2.5-2.5,0-1.4,1.1-2.5,2.5-2.5s2.5,1.1,2.5,2.5c0,1.4-1.1,2.5-2.5,2.5Z"/>
            <path class="cls-5" d="M15.4,8.2c-1,0-1.8.8-1.8,1.8s.8,1.8,1.8,1.8,1.8-.8,1.8-1.8-.8-1.8-1.8-1.8ZM15.4,11.1c-.6,0-1.1-.5-1.1-1.1s.5-1.1,1.1-1.1,1.1.5,1.1,1.1-.5,1.1-1.1,1.1Z"/>
          </g>
          <rect class="cls-6" x="14.1" y="4.8" width="2.7" height="1" rx=".3" ry=".3" transform="translate(-.9 5.2) rotate(-18.7)"/>
        </g>
        <g id="_3" data-name="3">
          <g>
            <path class="cls-14" d="M21.7,25.7c-.2-.3-.3-.7-.5-1,0,0-.2-.1-.3-.2-.3-.1-.7-.2-1-.3-.3,0-.4-.3-.3-.6,0-.3.3-.4.6-.3.5.1.9.2,1.3.4.2,0,.3.2.4.4.2.4.5.8.7,1.3.4-.3.8-.7,1.2-1,0,0,0-.3,0-.4-.4-.7-.8-1.5-1.2-2.2,0-.1-.3-.3,0-.5.2-.1.5-.4.8,0,.4.4.7.8,1.1,1.2.4.5.8,1,1.3,1.4,1,.9,1.5,2.1,2.1,3.3.2.4.4.8.6,1.3,0,0,0,.2.1.3,0,.6,0,.8-.7.8-1,0-2,0-3.2,0,.1.3.2.5.3.7.8,1.4,1.5,2.9,2.3,4.3,0,0,0,0,0,.1.2.3.2.6-.1.7-.3.1-.5,0-.6-.3-.5-.9-.9-1.8-1.4-2.7-.4-.7-.8-1.4-1.1-2.2-.1-.2-.3-.3-.5-.3-1.7,0-3.3,0-5,0-.1,0-.3,0-.4.2.1,0,.2.1.4.1,1.5,0,2.9,0,4.4,0,.1,0,.3,0,.5,0-.2.3-.4.4-.7.4-.9,0-1.8,0-2.7,0-.1,0-.3,0-.4,0,0,0,0,.1,0,.2.1,0,.2,0,.4,0,.8,0,1.5,0,2.3,0,.1,0,.3,0,.5,0-.7.6-1.2,1.1-1.8,1.6-1.8,1.4-3.7,2.8-5.5,4.1-.2.1-.4.2-.6.2-1,0-1.9,0-2.9,0-1,0-1.3-.3-1.6-1.2,0,0,0-.1,0-.3-.7,0-1.4,0-2.1,0-1,0-2,0-3,0-.3,0-.6,0-.7-.3-.1-.4.2-.5.4-.7,1.3-.9,2.6-1.9,3.8-2.8.4-.3.4-.6,0-.8-1.9-1.1-3.8-2.1-5.6-3.2-.4-.2-.9-.5-1.3-.7-.4-.2-.3-.5-.2-.8,0-.3.3-.2.5-.2,1.1,0,2.2,0,3.3,0,.8,0,1.4.3,1.9.9.1.1.2.3.3.4.3.4.7.6,1.2.6.9,0,1.8,0,2.8,0,.5,0,.9-.2,1.3-.5.8-.7,1.7-1.3,2.5-2,.4-.3.7-.4,1.2-.2,1,.3,2.1.6,3.1.8.7.1,1.4,0,2.2,0ZM9.3,32.3c-1,.7-2,1.4-3,2.2h3.7c-.2-.7-.4-1.4-.7-2.2ZM26.4,25.3c-.4.3-.6.6-.5,1.1.1.6,1.3,1.8,2,1.9-.5-1-1-2-1.4-3Z"/>
            <path class="cls-8" d="M26.6,32.3c-.3-.5-.5-.9-.7-1.4,1.5-.6,3.9,0,5,1.9,1.2,2,.5,4.6-1.5,5.8-1.9,1.2-4.5.6-5.8-1.2-1.3-1.9-.9-4.5.9-5.8.2.4.5.9.7,1.3,0,0,0,.2-.2.3-.7.9-.8,1.9-.3,2.9.5,1,1.3,1.5,2.5,1.5,1.6,0,2.8-1.4,2.6-3-.1-1.5-1.6-2.6-3.1-2.3,0,0,0,0-.2,0Z"/>
            <path class="cls-9" d="M9.1,35.7c-.3,2-2,3.4-3.9,3.6-2,.1-3.8-1.1-4.4-3-.6-1.8.1-3.9,1.8-4.9,1.6-1.1,3.8-.9,5.3.6-.3.2-.6.4-.8.6-.3.3-.6.3-1,0-1.3-.7-2.9-.2-3.6,1.1-.7,1.3-.2,2.9,1.2,3.6,1.3.7,2.9.2,3.6-1.2.2-.5.5-.6.9-.5.3,0,.6,0,.9,0Z"/>
            <path class="cls-10" d="M16,36.7c1.6-1.2,3.2-2.4,4.9-3.6,0,.6,0,1.2-.1,1.7,0,.1-.1.2-.2.3-.5.5-1.1,1-1.6,1.5-.1,0-.2.2-.4.2-.9,0-1.7,0-2.6,0,0,0,0,0,0,0Z"/>
            <path class="cls-7" d="M8.7,33.1c.1.4.3.8.4,1.2-.5,0-1,0-1.5,0,0,0-.2,0-.2-.1,0,0,0-.2,0-.2.4-.3.8-.5,1.2-.9Z"/>
          </g>
        </g>
      </g>
    </g>
  </g>
</svg>