<?xml version="1.0" encoding="UTF-8"?>
<svg id="Capa_1" data-name="Capa 1" xmlns="http://www.w3.org/2000/svg" xmlns:xlink="http://www.w3.org/1999/xlink" version="1.1" viewBox="0 0 32 40">
  <defs>
    <style>
      .cls-1 {
        fill: url(#Degradado_sin_nombre_16);
      }

      .cls-1, .cls-2, .cls-3, .cls-4, .cls-5, .cls-6, .cls-7, .cls-8, .cls-9, .cls-10, .cls-11 {
        stroke-width: 0px;
      }

      .cls-2 {
        fill: url(#Degradado_sin_nombre_16-5);
      }

      .cls-3 {
        fill: url(#Degradado_sin_nombre_16-2);
      }

      .cls-4 {
        fill: url(#Degradado_sin_nombre_16-7);
      }

      .cls-5 {
        fill: url(#Degradado_sin_nombre_16-3);
      }

      .cls-6 {
        fill: url(#Degradado_sin_nombre_16-4);
      }

      .cls-7 {
        fill: url(#Degradado_sin_nombre_16-6);
      }

      .cls-8 {
        fill: url(#Degradado_sin_nombre_16-8);
      }

      .cls-9 {
        fill: url(#Degradado_sin_nombre_16-9);
      }

      .cls-10 {
        fill: url(#Degradado_sin_nombre_16-10);
      }

      .cls-11 {
        fill: lime;
      }
    </style>
    <linearGradient id="Degradado_sin_nombre_16" data-name="Degradado sin nombre 16" x1="2.3" y1="10.3" x2="27.8" y2="10.3" gradientTransform="translate(0 40) scale(1 -1)" gradientUnits="userSpaceOnUse">
      <stop offset="0" stop-color="#101a31"/>
      <stop offset=".2" stop-color="#0c1d39"/>
      <stop offset=".3" stop-color="#082446"/>
      <stop offset=".6" stop-color="#053053"/>
      <stop offset="1" stop-color="#005075"/>
      <stop offset="1" stop-color="#005176"/>
    </linearGradient>
    <linearGradient id="Degradado_sin_nombre_16-2" data-name="Degradado sin nombre 16" x1="22.4" y1="4.7" x2="30.4" y2="4.7" xlink:href="#Degradado_sin_nombre_16"/>
    <linearGradient id="Degradado_sin_nombre_16-3" data-name="Degradado sin nombre 16" x1="1.5" y1="4.6" x2="9.5" y2="4.6" xlink:href="#Degradado_sin_nombre_16"/>
    <linearGradient id="Degradado_sin_nombre_16-4" data-name="Degradado sin nombre 16" x1="16" y1="4.7" x2="20.6" y2="4.7" xlink:href="#Degradado_sin_nombre_16"/>
    <linearGradient id="Degradado_sin_nombre_16-5" data-name="Degradado sin nombre 16" x1="7.9" y1="5.8" x2="9.5" y2="5.8" xlink:href="#Degradado_sin_nombre_16"/>
    <linearGradient id="Degradado_sin_nombre_16-6" data-name="Degradado sin nombre 16" x1="12.3" y1="20.9" x2="20" y2="20.9" gradientTransform="matrix(1,0,0,1,0,0)" xlink:href="#Degradado_sin_nombre_16"/>
    <linearGradient id="Degradado_sin_nombre_16-7" data-name="Degradado sin nombre 16" x1="7.8" y1="9.1" x2="24.3" y2="9.1" gradientTransform="matrix(1,0,0,1,0,0)" xlink:href="#Degradado_sin_nombre_16"/>
    <linearGradient id="Degradado_sin_nombre_16-8" data-name="Degradado sin nombre 16" x1="12.1" y1="9.8" x2="20" y2="9.8" gradientTransform="matrix(1,0,0,1,0,0)" xlink:href="#Degradado_sin_nombre_16"/>
    <linearGradient id="Degradado_sin_nombre_16-9" data-name="Degradado sin nombre 16" x1="14.1" y1="9.8" x2="18" y2="9.8" gradientTransform="matrix(1,0,0,1,0,0)" xlink:href="#Degradado_sin_nombre_16"/>
    <linearGradient id="Degradado_sin_nombre_16-10" data-name="Degradado sin nombre 16" x1="14.6" y1="4.6" x2="17.6" y2="4.6" gradientTransform="translate(2.3 -4.9) rotate(18.7)" xlink:href="#Degradado_sin_nombre_16"/>
  </defs>
  <g id="Capa_1-2" data-name="Capa 1">
    <g id="_3" data-name=" 3">
      <g>
        <path class="cls-1" d="M21.3,26.7c-.2-.3-.3-.7-.5-.9,0,0-.2,0-.3-.2-.3,0-.7-.2-.9-.3-.3,0-.4-.3-.3-.6,0-.3.3-.4.6-.3.5,0,.8.2,1.2.4.2,0,.3.2.4.4.2.4.5.7.7,1.2.4-.3.7-.7,1.1-.9v-.4c-.4-.7-.7-1.4-1.1-2.1,0,0-.3-.3,0-.5.2,0,.5-.4.7,0,.4.4.7.7,1,1.1.4.5.7.9,1.2,1.3.9.8,1.4,2,2,3.1.2.4.4.7.6,1.2,0,0,0,.2,0,.3,0,.6,0,.7-.7.7h-3c0,.3.2.5.3.7.7,1.3,1.4,2.7,2.2,4h0c.2.4.2.7,0,.7-.3,0-.5,0-.6-.3-.5-.8-.8-1.7-1.3-2.5-.4-.7-.7-1.3-1-2.1,0-.2-.3-.3-.5-.3h-4.7c0,0-.3,0-.4.2,0,0,.2,0,.4,0h4.6c-.2.3-.4.4-.7.4h-2.9v.2h3c-.7.6-1.1,1-1.7,1.5-1.7,1.3-3.5,2.6-5.1,3.8-.2,0-.4.2-.6.2h-2.7c-.9,0-1.2-.3-1.5-1.1v-.3h-4.8c-.3,0-.6,0-.7-.3,0-.4.2-.5.4-.7,1.2-.8,2.4-1.8,3.6-2.6.4-.3.4-.6,0-.7-1.8-1-3.6-2-5.2-3-.4-.2-.8-.5-1.2-.7-.4-.2-.3-.5-.2-.7,0-.3.3-.2.5-.2h3.1c.7,0,1.3.3,1.8.8,0,0,.2.3.3.4.3.4.7.6,1.1.6h2.6c.5,0,.8-.2,1.2-.5.7-.7,1.6-1.2,2.3-1.9.4-.3.7-.4,1.1-.2.9.3,2,.6,2.9.7.7,0,1.3,0,2.1,0h-.4ZM9.7,32.8c-.9.7-1.9,1.3-2.8,2.1h3.5c-.2-.7-.4-1.3-.7-2.1ZM25.7,26.3c-.4.3-.6.6-.5,1,0,.6,1.2,1.7,1.9,1.8-.5-.9-.9-1.9-1.3-2.8h0Z"/>
        <path class="cls-3" d="M25.9,32.8c-.3-.5-.5-.8-.7-1.3,1.4-.6,3.7,0,4.7,1.8,1.1,1.9.5,4.3-1.4,5.4-1.8,1.1-4.2.6-5.4-1.1-1.2-1.8-.8-4.2.8-5.4.2.4.5.8.7,1.2,0,0,0,.2-.2.3-.7.8-.7,1.8-.3,2.7s1.2,1.4,2.3,1.4,2.6-1.3,2.4-2.8c0-1.4-1.5-2.4-2.9-2.2h-.2,0Z"/>
        <path class="cls-5" d="M9.5,36c-.3,1.9-1.9,3.2-3.7,3.4-1.9,0-3.6-1-4.1-2.8-.6-1.7,0-3.7,1.7-4.6,1.5-1,3.6-.8,5,.6-.3.2-.6.4-.7.6-.3.3-.6.3-.9,0-1.2-.7-2.7-.2-3.4,1-.7,1.2-.2,2.7,1.1,3.4,1.2.7,2.7.2,3.4-1.1.2-.5.5-.6.8-.5h.8Z"/>
        <path class="cls-6" d="M16,37c1.5-1.1,3-2.2,4.6-3.4,0,.6,0,1.1,0,1.6,0,0,0,.2-.2.3-.5.5-1,.9-1.5,1.4,0,0-.2.2-.4.2h-2.4,0Z"/>
        <path class="cls-2" d="M9.1,33.6c0,.4.3.7.4,1.1h-1.4s-.2,0-.2,0v-.2c.4-.3.7-.5,1.1-.8h0Z"/>
      </g>
    </g>
  </g>
  <g>
    <path class="cls-11" d="M16,.5C11.3.5,7.4,4.3,7.4,9.1s3.9,8.6,8.6,8.6,8.6-3.9,8.6-8.6S20.8.5,16,.5ZM16,15.9c-3.8,0-6.8-3-6.8-6.8s3-6.8,6.8-6.8,6.8,3,6.8,6.8-3,6.8-6.8,6.8Z"/>
    <path class="cls-7" d="M20,18l-3.8,5.8-3.8-5.8c1.2.5,2.5.8,3.8.8s2.7-.3,3.8-.8Z"/>
    <path class="cls-4" d="M16,.8c-4.6,0-8.3,3.7-8.3,8.3s3.7,8.3,8.3,8.3,8.3-3.7,8.3-8.3S20.6.8,16,.8ZM16,15.6c-3.6,0-6.5-2.9-6.5-6.5s2.9-6.5,6.5-6.5,6.5,2.9,6.5,6.5-2.9,6.5-6.5,6.5Z"/>
  </g>
  <g>
    <g>
      <path class="cls-8" d="M16.1,5.9c-2.2,0-3.9,1.7-3.9,3.9s1.7,3.9,3.9,3.9,3.9-1.7,3.9-3.9-1.7-3.9-3.9-3.9ZM16.1,12.5c-1.5,0-2.7-1.2-2.7-2.7s1.2-2.7,2.7-2.7,2.7,1.2,2.7,2.7-1.2,2.7-2.7,2.7Z"/>
      <path class="cls-9" d="M16.1,7.8c-1.1,0-2,.9-2,2s.9,2,2,2,2-.9,2-2-.9-2-2-2ZM16.1,11c-.7,0-1.2-.5-1.2-1.2s.5-1.2,1.2-1.2,1.2.5,1.2,1.2-.5,1.2-1.2,1.2Z"/>
    </g>
    <rect class="cls-10" x="14.6" y="4.1" width="2.9" height="1.1" rx=".3" ry=".3" transform="translate(-.6 5.4) rotate(-18.7)"/>
  </g>
</svg>