<?xml version="1.0" encoding="utf-8"?>
<!-- Generator: Adobe Illustrator 28.3.0, SVG Export Plug-In . SVG Version: 6.00 Build 0)  -->
<svg version="1.1" id="Capa_1" xmlns="http://www.w3.org/2000/svg" xmlns:xlink="http://www.w3.org/1999/xlink" x="0px" y="0px"
	 viewBox="0 0 32 32" style="enable-background:new 0 0 32 32;" xml:space="preserve">
<style type="text/css">
	.st0{fill:#0AFD02;}
	.st1{fill:url(#SVGID_1_);}
	.st2{fill:url(#SVGID_00000178179913960897103570000014479956087735458176_);}
	.st3{opacity:0.7;}
	.st4{fill:url(#SVGID_00000070088021759710237450000008886917481538734013_);}
	.st5{opacity:0.2;}
	.st6{fill:url(#SVGID_00000101802885263701922420000013181664850347793322_);}
	.st7{opacity:0.1;fill:url(#SVGID_00000147210635228888552810000012032851782786021267_);}
	.st8{opacity:0.6;fill:url(#SVGID_00000005948472612608845600000010138551340741528487_);}
	.st9{fill:#000056;}
</style>
<g>
	<g>
		<g>
			<g>
				<path class="st0" d="M26.8,12.8c0,6-10.3,17.3-10.8,17.3c-0.6,0-10.8-11.3-10.8-17.3C5.2,6.8,10,1.9,16,1.9
					C22,1.9,26.8,6.8,26.8,12.8z"/>
			</g>
		</g>
	</g>
	<g>
		<g>
			<g>
				<linearGradient id="SVGID_1_" gradientUnits="userSpaceOnUse" x1="16" y1="2.9099" x2="16" y2="29.6823">
					<stop  offset="0" style="stop-color:#297B8A"/>
					<stop  offset="0.9946" style="stop-color:#251D45"/>
				</linearGradient>
				<path class="st1" d="M26.1,13c0,5.6-9.6,16.1-10.1,16.1C15.5,29.1,5.9,18.6,5.9,13C5.9,7.4,10.4,2.9,16,2.9
					C21.6,2.9,26.1,7.4,26.1,13z"/>
			</g>
			
				<linearGradient id="SVGID_00000066481033557853440170000008385056884555673493_" gradientUnits="userSpaceOnUse" x1="16.0003" y1="0.4914" x2="16.0003" y2="19.9563">
				<stop  offset="3.370800e-02" style="stop-color:#231F3F"/>
				<stop  offset="1" style="stop-color:#FFFFFF"/>
			</linearGradient>
			<path style="fill:url(#SVGID_00000066481033557853440170000008385056884555673493_);" d="M23.7,12.4c0,4.2-3.4,7.7-7.7,7.7
				c-4.2,0-7.7-3.4-7.7-7.7c0-4.2,3.4-7.7,7.7-7.7C20.2,4.7,23.7,8.2,23.7,12.4z"/>
			<g class="st3">
				
					<radialGradient id="SVGID_00000010994687979376984740000004303937231106368940_" cx="16.0006" cy="12.3895" r="7.3472" gradientUnits="userSpaceOnUse">
					<stop  offset="0" style="stop-color:#FFFFFF"/>
					<stop  offset="0" style="stop-color:#FFFFFF"/>
					<stop  offset="0.2799" style="stop-color:#F5F5F5"/>
					<stop  offset="0.5934" style="stop-color:#F0F0F0"/>
					<stop  offset="0.6556" style="stop-color:#E6E6E7"/>
					<stop  offset="0.7602" style="stop-color:#CCCDCD"/>
					<stop  offset="0.8936" style="stop-color:#A2A3A4"/>
					<stop  offset="1" style="stop-color:#7B7D7F"/>
				</radialGradient>
				<path style="fill:url(#SVGID_00000010994687979376984740000004303937231106368940_);" d="M23.3,12.4c0,4.1-3.3,7.3-7.3,7.3
					c-4.1,0-7.3-3.3-7.3-7.3C8.7,8.3,11.9,5,16,5C20.1,5,23.3,8.3,23.3,12.4z"/>
			</g>
			<g class="st5">
				
					<radialGradient id="SVGID_00000070829067867083218070000011412277451625499292_" cx="15.8138" cy="12.4444" r="6.6903" gradientUnits="userSpaceOnUse">
					<stop  offset="0" style="stop-color:#FFFFFF"/>
					<stop  offset="0" style="stop-color:#FFFFFF"/>
					<stop  offset="0.2865" style="stop-color:#FDFDFD"/>
					<stop  offset="0.4391" style="stop-color:#F5F5F5"/>
					<stop  offset="0.5603" style="stop-color:#E7E7E7"/>
					<stop  offset="0.6648" style="stop-color:#D4D4D4"/>
					<stop  offset="0.7586" style="stop-color:#BBBBBB"/>
					<stop  offset="0.8449" style="stop-color:#9C9C9C"/>
					<stop  offset="0.9236" style="stop-color:#797979"/>
					<stop  offset="0.9975" style="stop-color:#505050"/>
					<stop  offset="1" style="stop-color:#4E4E4E"/>
				</radialGradient>
				<path style="fill:url(#SVGID_00000070829067867083218070000011412277451625499292_);" d="M22.7,12.4c0,3.7-3,6.7-6.7,6.7
					c-3.7,0-6.7-3-6.7-6.7c0-3.7,3-6.7,6.7-6.7C19.7,5.7,22.7,8.7,22.7,12.4z"/>
			</g>
			
				<radialGradient id="SVGID_00000089550469353803956710000016683873916655079865_" cx="16.3761" cy="-58.573" r="5.1181" gradientTransform="matrix(1.1221 0 0 1.4802 -2.3755 98.1875)" gradientUnits="userSpaceOnUse">
				<stop  offset="0" style="stop-color:#E2E0DD"/>
				<stop  offset="0" style="stop-color:#EFEDEC"/>
				<stop  offset="0" style="stop-color:#FFFFFF"/>
				<stop  offset="0.201" style="stop-color:#F0F0F0"/>
				<stop  offset="0.5868" style="stop-color:#C9C9C9"/>
				<stop  offset="1" style="stop-color:#999999"/>
			</radialGradient>
			<path style="opacity:0.1;fill:url(#SVGID_00000089550469353803956710000016683873916655079865_);" d="M22.6,11.5
				c0,3.5-2.9,6.3-6.6,6.3c-3.6,0-6.6-2.8-6.6-6.3c0-3.5,2.9-6.3,6.6-6.3C19.6,5.2,22.6,8,22.6,11.5z"/>
			
				<linearGradient id="SVGID_00000067218816910628366560000016053001126729426573_" gradientUnits="userSpaceOnUse" x1="16.0002" y1="1.3166" x2="16.0002" y2="12.7086">
				<stop  offset="0" style="stop-color:#FFFFFF"/>
				<stop  offset="8.491480e-02" style="stop-color:#FDF6F6"/>
				<stop  offset="0.2263" style="stop-color:#F9DCDC"/>
				<stop  offset="0.4066" style="stop-color:#F1B3B2"/>
				<stop  offset="0.6188" style="stop-color:#E67A79"/>
				<stop  offset="0.8552" style="stop-color:#D93330"/>
				<stop  offset="1" style="stop-color:#D00300"/>
			</linearGradient>
			<path style="opacity:0.6;fill:url(#SVGID_00000067218816910628366560000016053001126729426573_);" d="M16,3.8
				c4.9,0,8.9,3.8,9.1,8.5c0-0.1,0-0.2,0-0.3c0-4.9-4.1-8.8-9.1-8.8c-5,0-9.1,4-9.1,8.8c0,0.1,0,0.2,0,0.3C7.1,7.6,11.1,3.8,16,3.8z
				"/>
		</g>
	</g>
	<g>
		<g>
			<path class="st9" d="M13.5,14.1c-0.4,0-0.6,0.3-0.6,0.6c0,0.4,0.3,0.6,0.6,0.6s0.6-0.3,0.6-0.6C14.1,14.3,13.8,14.1,13.5,14.1z"
				/>
			<circle class="st9" cx="20.1" cy="14.7" r="0.6"/>
			<path class="st9" d="M22.5,12.4l-0.4-1.4c-0.1-0.2-0.2-0.4-0.5-0.4h-2.1c-0.1,0-0.2,0.1-0.2,0.2v2.4h-0.3h-8.3
				c-0.1,0-0.2,0.1-0.2,0.2v1c0,0.1,0.1,0.2,0.2,0.2h1.8c0-0.5,0.4-0.9,0.9-0.9s0.9,0.4,0.9,0.9h4.8c0-0.5,0.4-0.9,0.9-0.9
				s0.9,0.4,0.9,0.9h1.2c0.2,0,0.4-0.2,0.4-0.4v-1.6C22.6,12.6,22.5,12.5,22.5,12.4z M22.1,12.5h-1.8c-0.1,0-0.2-0.1-0.2-0.2v-1
				c0-0.1,0.1-0.2,0.2-0.2h1.4c0.1,0,0.1,0,0.1,0.1L22.1,12.5C22.1,12.5,22.1,12.5,22.1,12.5z"/>
			<path class="st9" d="M17.5,13c0.9,0,1.6-0.7,1.6-1.6v0c0-0.9-0.7-1.6-1.6-1.6h-0.2V9.4h-2.1v0.3h-3.7c-0.9,0-1.6,0.7-1.6,1.6v0
				c0,0.9,0.7,1.6,1.6,1.6H17.5z"/>
		</g>
		
			<image style="overflow:visible;" width="1965" height="1110" xlink:href="../../../../ALPINA/LOGO.png"  transform="matrix(2.446300e-03 0 0 2.446300e-03 11.4146 10.1398)">
		</image>
	</g>
</g>
</svg>
