<?xml version="1.0" encoding="utf-8"?>
<!-- Generator: Adobe Illustrator 28.3.0, SVG Export Plug-In . SVG Version: 6.00 Build 0)  -->
<svg version="1.1" id="Capa_1" xmlns="http://www.w3.org/2000/svg" xmlns:xlink="http://www.w3.org/1999/xlink" x="0px" y="0px"
	 viewBox="0 0 32 32" style="enable-background:new 0 0 32 32; width:50px;height:50px;" xml:space="preserve">
<style type="text/css">
	.st0{fill:#0AFD02;}
	.st1{fill:url(#SVGID_1_);}
	.st2{fill:url(#SVGID_00000003799085720332256790000017073226712028428173_);}
	.st3{fill:url(#SVGID_00000127743425474748088880000011731407061790633114_);}
	.st4{fill:url(#SVGID_00000181773504681613705740000008768581201819157406_);}
	.st5{opacity:0.21;fill:#FFFFFF;}
	.st6{fill:#FFFFFF;}
</style>
<g>
	<g>
		<path class="st0" d="M16,31.6c-0.1,0-0.2,0-0.3-0.1c-3.7-1.4-6.7-3.7-9-6.6c-1.8-2.4-3.2-5.2-4-8.4c-1.4-5.4-1-10-0.9-10.2
			c0-0.4,0.3-0.7,0.7-0.7c0,0,2.1-0.2,4.7-0.9c2.4-0.7,5.8-1.9,8.2-4c0.1-0.1,0.4-0.2,0.6-0.2c0.2,0,0.4,0.1,0.5,0.2
			c2.5,2.1,5.9,3.3,8.3,4c2.6,0.7,4.7,0.9,4.7,0.9c0.4,0,0.7,0.3,0.7,0.7c0,0.2,0.5,4.8-0.9,10.2c-0.8,3.2-2.2,6-4,8.4
			c-2.3,3-5.3,5.2-9,6.6C16.2,31.6,16.1,31.6,16,31.6z"/>
	</g>
	<g>
		<linearGradient id="SVGID_1_" gradientUnits="userSpaceOnUse" x1="3.9601" y1="18.1254" x2="30.2558" y2="13.4887">
			<stop  offset="0" style="stop-color:#B7B7B7"/>
			<stop  offset="0.1649" style="stop-color:#FCFCFC"/>
			<stop  offset="0.2081" style="stop-color:#F7F7F7"/>
			<stop  offset="0.3135" style="stop-color:#FFFFFF"/>
			<stop  offset="0.4189" style="stop-color:#8C8C8C"/>
			<stop  offset="0.6081" style="stop-color:#CBCBCB"/>
			<stop  offset="0.6838" style="stop-color:#9D9D9D"/>
			<stop  offset="0.8405" style="stop-color:#ABABAB"/>
			<stop  offset="0.927" style="stop-color:#DCDCDC"/>
		</linearGradient>
		<path class="st1" d="M16,30.6c-0.1,0-0.2,0-0.3-0.1c-3.4-1.4-6.2-3.5-8.3-6.2c-1.7-2.2-2.9-4.9-3.7-7.9c-1.3-5.1-0.9-9.4-0.9-9.6
			c0-0.3,0.3-0.6,0.7-0.6c0,0,1.9-0.2,4.3-0.9c2.2-0.6,5.3-1.8,7.6-3.8c0.1-0.1,0.3-0.2,0.5-0.2c0.2,0,0.4,0.1,0.5,0.2
			c2.3,2,5.4,3.1,7.6,3.8c2.4,0.7,4.3,0.9,4.3,0.9c0.3,0,0.6,0.3,0.7,0.6c0,0.2,0.5,4.5-0.8,9.6c-0.8,3-2,5.7-3.7,7.9
			c-2.1,2.8-4.9,4.9-8.3,6.2C16.2,30.6,16.1,30.6,16,30.6z"/>
		
			<linearGradient id="SVGID_00000049941220359838552720000004671102560358875281_" gradientUnits="userSpaceOnUse" x1="3.1425" y1="16" x2="28.8575" y2="16">
			<stop  offset="0" style="stop-color:#EBEBEB"/>
			<stop  offset="6.216216e-02" style="stop-color:#C2C2C2"/>
			<stop  offset="0.227" style="stop-color:#FFFFFF"/>
			<stop  offset="0.4189" style="stop-color:#8C8C8C;stop-opacity:0.6"/>
			<stop  offset="0.6081" style="stop-color:#CBCBCB"/>
			<stop  offset="0.6838" style="stop-color:#9D9D9D;stop-opacity:0.5"/>
			<stop  offset="0.8297" style="stop-color:#ABABAB;stop-opacity:0.6"/>
			<stop  offset="0.927" style="stop-color:#DCDCDC"/>
		</linearGradient>
		<path style="fill:url(#SVGID_00000049941220359838552720000004671102560358875281_);" d="M16,30.3c-0.1,0-0.1,0-0.2,0
			c-3.3-1.3-6.1-3.4-8.1-6.1c-1.7-2.2-2.9-4.8-3.7-7.8c-1.3-5-0.9-9.3-0.8-9.5c0-0.2,0.2-0.3,0.4-0.4c0,0,1.9-0.2,4.4-0.9
			c2.2-0.6,5.4-1.8,7.7-3.8c0.1-0.1,0.2-0.1,0.3-0.1c0.1,0,0.2,0,0.3,0.1c2.3,2,5.5,3.2,7.7,3.8c2.5,0.7,4.4,0.9,4.4,0.9
			c0.2,0,0.3,0.2,0.4,0.4c0,0.2,0.5,4.4-0.8,9.5c-0.8,3-2,5.6-3.6,7.8c-2.1,2.7-4.8,4.8-8.1,6.1C16.1,30.3,16.1,30.3,16,30.3z"/>
		
			<linearGradient id="SVGID_00000003090018090681299470000001073472163263293603_" gradientUnits="userSpaceOnUse" x1="23.46" y1="24.809" x2="11.2443" y2="3.6507">
			<stop  offset="0" style="stop-color:#FFFFFF"/>
			<stop  offset="0.4135" style="stop-color:#ACAEAC"/>
			<stop  offset="0.6297" style="stop-color:#666C64"/>
			<stop  offset="0.8189" style="stop-color:#5F655C"/>
			<stop  offset="1" style="stop-color:#ABABAB"/>
		</linearGradient>
		<path style="fill:url(#SVGID_00000003090018090681299470000001073472163263293603_);" d="M16,28.9C16,28.9,16,28.9,16,28.9
			c-3-1.3-5.5-3.2-7.3-5.6C7.1,21.2,6,18.8,5.3,16c-0.9-3.6-0.9-6.7-0.9-8.2c0-0.1,0.1-0.2,0.2-0.2c0.9-0.1,2.2-0.4,3.8-0.8
			c2.1-0.6,5.1-1.7,7.6-3.6c0,0,0.1,0,0.1,0c0,0,0.1,0,0.1,0c2.4,1.9,5.5,3,7.6,3.6c1.6,0.4,2.9,0.7,3.8,0.8c0.1,0,0.2,0.1,0.2,0.2
			c0.1,1.5,0.1,4.7-0.8,8.2c-0.7,2.8-1.9,5.3-3.4,7.3C21.5,25.8,19.1,27.6,16,28.9C16.1,28.9,16.1,28.9,16,28.9z"/>
		
			<linearGradient id="SVGID_00000099626769296271661260000006745356688570229388_" gradientUnits="userSpaceOnUse" x1="7.2268" y1="20.6402" x2="26.6921" y2="7.0104">
			<stop  offset="3.578244e-04" style="stop-color:#05A99A"/>
			<stop  offset="0.2104" style="stop-color:#0C8991"/>
			<stop  offset="0.5707" style="stop-color:#175984"/>
			<stop  offset="0.8454" style="stop-color:#1D3A7C"/>
			<stop  offset="1" style="stop-color:#202F79"/>
		</linearGradient>
		<path style="fill:url(#SVGID_00000099626769296271661260000006745356688570229388_);" d="M16,28.5c-2.9-1.2-5.3-3.1-7.1-5.5
			c-1.5-2-2.7-4.4-3.4-7.2c-0.9-3.6-0.9-6.7-0.9-8.1C5.5,7.7,6.9,7.5,8.5,7c2.2-0.6,5.1-1.7,7.5-3.6c2.4,1.9,5.4,3,7.5,3.6
			c1.6,0.4,2.9,0.7,3.7,0.8c0.1,1.4,0.1,4.5-0.8,8.1c-0.7,2.8-1.8,5.2-3.4,7.2C21.3,25.5,18.9,27.3,16,28.5z"/>
		<g>
			<path class="st5" d="M20.2,6l2.5,0.8c0,0,2.3,9.4-6.9,21.7C15.8,28.5,22.3,14.5,20.2,6z"/>
			<path class="st5" d="M11.2,6L8.7,6.8c0,0-2.3,9.4,6.9,21.7C15.6,28.5,9.1,14.5,11.2,6z"/>
			<path class="st5" d="M23.7,7l2.1,0.7c0,0,1.9,7.9-5.8,18.3C19.9,26,25.5,14.2,23.7,7z"/>
			<path class="st5" d="M8.4,6.9L6.3,7.6c0,0-2,8.3,6.1,19.1C12.3,26.7,6.6,14.4,8.4,6.9z"/>
		</g>
		
			<image style="overflow:visible;opacity:0.5;" width="96" height="106" xlink:href="FF92569C762C7DC6.png"  transform="matrix(0.24 0 0 0.24 4.56 3.36)">
		</image>
		<g>
			
				<image style="overflow:visible;opacity:0.26;" width="71" height="84" xlink:href="FF92569C762C7DCA.png"  transform="matrix(0.24 0 0 0.24 7.5524 5.3924)">
			</image>
			<g>
				<g>
					<g>
						<path class="st6" d="M16.1,11.3c-3.1,0-5.7,2.6-5.7,5.7s2.6,5.7,5.7,5.7s5.7-2.6,5.7-5.7C21.8,13.9,19.2,11.3,16.1,11.3z
							 M16.1,21c-2.2,0-4-1.8-4-4c0-2.2,1.8-4,4-4s4,1.8,4,4C20.1,19.2,18.3,21,16.1,21z"/>
						<path class="st6" d="M16.1,14.2c-1.6,0-2.8,1.3-2.8,2.8c0,1.6,1.3,2.8,2.8,2.8c1.6,0,2.8-1.3,2.8-2.8
							C18.9,15.4,17.7,14.2,16.1,14.2z M16.1,18.7c-0.9,0-1.7-0.8-1.7-1.7c0-0.9,0.8-1.7,1.7-1.7c0.9,0,1.7,0.8,1.7,1.7
							C17.8,17.9,17,18.7,16.1,18.7z"/>
					</g>
					<path class="st6" d="M18.2,9.4L18,8.7c-0.1-0.2-0.3-0.3-0.5-0.3l-3.2,1.1C14.1,9.6,13.9,9.8,14,10l0.2,0.7
						c0.1,0.2,0.3,0.3,0.5,0.3L18,9.9C18.2,9.8,18.3,9.6,18.2,9.4z"/>
				</g>
			</g>
		</g>
	</g>
</g>
</svg>
