<?xml version="1.0" encoding="UTF-8"?>
<svg id="Capa_1" data-name="Capa 1" xmlns="http://www.w3.org/2000/svg" xmlns:xlink="http://www.w3.org/1999/xlink" version="1.1" viewBox="0 0 32 32">
  <defs>
    <style>
      .cls-1 {
        fill: #0afd02;
      }

      .cls-1, .cls-2, .cls-3, .cls-4, .cls-5, .cls-6, .cls-7, .cls-8 {
        stroke-width: 0px;
      }

      .cls-2 {
        fill: #000089;
      }

      .cls-3 {
        fill: url(#Degradado_sin_nombre_4);
      }

      .cls-4 {
        fill: url(#Degradado_sin_nombre_3);
      }

      .cls-5 {
        fill: url(#Degradado_sin_nombre_2);
      }

      .cls-9 {
        opacity: .7;
      }

      .cls-9, .cls-6, .cls-7 {
        mix-blend-mode: screen;
      }

      .cls-6 {
        fill: url(#Degradado_sin_nombre_5);
        opacity: 0;
      }

      .cls-6, .cls-10, .cls-7 {
        isolation: isolate;
      }

      .cls-11 {
        mix-blend-mode: multiply;
        opacity: .2;
      }

      .cls-7 {
        fill: url(#Degradado_sin_nombre_6);
        opacity: .3;
      }

      .cls-8 {
        fill: #000059;
      }
    </style>
    <linearGradient id="Degradado_sin_nombre_2" data-name="Degradado sin nombre 2" x1="16.5" y1="31.3" x2="16.5" y2="11.8" gradientTransform="translate(0 32) scale(1 -1)" gradientUnits="userSpaceOnUse">
      <stop offset="0" stop-color="#231f3f"/>
      <stop offset="1" stop-color="#fff"/>
    </linearGradient>
    <radialGradient id="Degradado_sin_nombre_3" data-name="Degradado sin nombre 3" cx="16.5" cy="19.4" fx="16.5" fy="19.4" r="7.3" gradientTransform="translate(0 32) scale(1 -1)" gradientUnits="userSpaceOnUse">
      <stop offset="0" stop-color="#fff"/>
      <stop offset="0" stop-color="#fff"/>
      <stop offset=".3" stop-color="#f4f4f4"/>
      <stop offset=".6" stop-color="#f0f0f0"/>
      <stop offset=".7" stop-color="#e6e6e6"/>
      <stop offset=".8" stop-color="#cccccd"/>
      <stop offset=".9" stop-color="#a1a3a4"/>
      <stop offset="1" stop-color="#7b7d7f"/>
    </radialGradient>
    <radialGradient id="Degradado_sin_nombre_4" data-name="Degradado sin nombre 4" cx="16.3" cy="19.3" fx="16.3" fy="19.3" r="6.7" gradientTransform="translate(0 32) scale(1 -1)" gradientUnits="userSpaceOnUse">
      <stop offset="0" stop-color="#fff"/>
      <stop offset="0" stop-color="#fff"/>
      <stop offset=".3" stop-color="#fcfcfc"/>
      <stop offset=".4" stop-color="#f4f4f4"/>
      <stop offset=".6" stop-color="#e7e7e7"/>
      <stop offset=".7" stop-color="#d3d3d3"/>
      <stop offset=".8" stop-color="#bbb"/>
      <stop offset=".8" stop-color="#9c9c9c"/>
      <stop offset=".9" stop-color="#787878"/>
      <stop offset="1" stop-color="#4f4f4f"/>
      <stop offset="1" stop-color="#4e4e4e"/>
    </radialGradient>
    <radialGradient id="Degradado_sin_nombre_5" data-name="Degradado sin nombre 5" cx="16.8" cy="90.4" fx="16.8" fy="90.4" r="5.1" gradientTransform="translate(-2.4 146.2) scale(1.1 -1.5)" gradientUnits="userSpaceOnUse">
      <stop offset="0" stop-color="#e2e0dd"/>
      <stop offset="0" stop-color="#eeedeb"/>
      <stop offset="0" stop-color="#fff"/>
      <stop offset=".2" stop-color="#f0f0f0"/>
      <stop offset=".6" stop-color="#c9c9c9"/>
      <stop offset="1" stop-color="#999"/>
    </radialGradient>
    <linearGradient id="Degradado_sin_nombre_6" data-name="Degradado sin nombre 6" x1="16.5" y1="30.5" x2="16.5" y2="19.1" gradientTransform="translate(0 32) scale(1 -1)" gradientUnits="userSpaceOnUse">
      <stop offset="0" stop-color="#fff"/>
      <stop offset="0" stop-color="#fdf5f5"/>
      <stop offset=".2" stop-color="#f8dcdc"/>
      <stop offset=".4" stop-color="#f0b3b2"/>
      <stop offset=".6" stop-color="#e67a78"/>
      <stop offset=".9" stop-color="#d83230"/>
      <stop offset="1" stop-color="#d00300"/>
    </linearGradient>
  </defs>
  <g class="cls-10">
    <g id="Capa_1-2" data-name="Capa 1">
      <g>
        <path class="cls-1" d="M27,13.1c0,5.9-10.1,16.9-10.5,16.9S6,18.9,6,13.1,10.6,2.5,16.5,2.5s10.5,4.7,10.5,10.5Z"/>
        <g>
          <path class="cls-8" d="M26.6,13.2c0,5.6-9.6,16.1-10.1,16.1S6.4,18.8,6.4,13.2,10.9,3.1,16.5,3.1s10.1,4.5,10.1,10.1Z"/>
          <path class="cls-5" d="M24.2,12.6c0,4.2-3.4,7.7-7.7,7.7s-7.7-3.4-7.7-7.7,3.4-7.7,7.7-7.7,7.7,3.4,7.7,7.7Z"/>
          <g class="cls-9">
            <path class="cls-4" d="M23.8,12.6c0,4.1-3.3,7.3-7.3,7.3s-7.3-3.3-7.3-7.3,3.3-7.3,7.3-7.3,7.3,3.3,7.3,7.3Z"/>
          </g>
          <g class="cls-11">
            <path class="cls-3" d="M23.2,12.6c0,3.7-3,6.7-6.7,6.7s-6.7-3-6.7-6.7,3-6.7,6.7-6.7,6.7,3,6.7,6.7Z"/>
          </g>
          <path class="cls-6" d="M23,11.7c0,3.5-2.9,6.3-6.6,6.3s-6.6-2.8-6.6-6.3,2.9-6.3,6.6-6.3,6.6,2.8,6.6,6.3Z"/>
          <path class="cls-7" d="M16.5,4c4.9,0,8.9,3.8,9.1,8.5v-.3c0-4.9-4.1-8.8-9.1-8.8S7.4,7.4,7.4,12.3s0,.2,0,.3c.2-4.7,4.2-8.5,9.1-8.5h0Z"/>
        </g>
        <g>
          <path class="cls-2" d="M15.3,10.7c-.1,0-.3.2-.7,1.1,0,0,0,.1,0,.2.4-.4.6-.7.7-1,.1-.2,0-.3,0-.3"/>
          <path class="cls-2" d="M21.2,11.9c0,0-.1-.2-.3-.2s-.4.2-.7.5c-.2.4-.2.6,0,.7.1,0,.6-.2,1-1.1,0,0,0,0,0,0"/>
          <path class="cls-2" d="M16.5,9.5c-4.5,0-6.5,1.4-6.5,3.3s3.8,4.4,6.5,4.4,6.5-2.4,6.5-4.4-2-3.3-6.5-3.3M17.9,10.4c.2,0,.4.1.4.3,0,.2-.3.4-.5.3-.1,0-.1-.5,0-.6M19.2,15.8l-.4-.2-.3-.2v.3c-.1,0-.8-.6-.8-.6l-.3-.2-.3-.6-.3-.3h-.2c0,0,.3.3.3.3v.3c-.1,0,0,.4,0,.4h-.2c0,.1.2.3.2.3v.2s-.3-.2-.3-.2h-.1c0,.1.7.6.7.6l.2.4-1-.8h-.1c0,.1,1.2,1.1,1.2,1.1h-.2s-1.1-.8-1.1-.8h-.1c0,.1,1,.9,1,.9h-.3s-1-.7-1-.7h-.4c0-.1,1.1.8,1.1.8h-.3s-1.2-.9-1.2-.9h-.2c0,0,1,.8,1,.8h-.4c0,0-.9-.7-.9-.7v.2c0,0,.5.4.5.4-.6-.2-1-.4-1.4-.6h.2c0,0,.3,0,.3,0l.4-.3h.3s.8-.4.8-.4l.2-.5.3-.2v-.3c.1,0,.4-.2.4-.2h.4c0,.1.4.5.4.5l.3.6.2.2.3.3h.3c0,0,.4.2.4.2l.6.2h-.3ZM21.9,12.9c-.3.4-.7.7-1,.6-.1,0-.2-.2-.2-.3,0,0,0-.2,0-.3-.4.4-.6.5-.7.4-.1,0-.3-.1-.3-.4,0,0,0-.2,0-.2-.4.4-.6.5-.8.5-.1,0-.2-.2-.2-.3,0-.2.8-1.3.7-1.3s-.6.3-1.2,1.2c0,0,0,.2,0,.2,0,0,0,.1-.1,0-.1,0-.2-.2-.2-.3s0-.2.1-.3c-.4.5-.7.7-.9.6-.1,0-.2-.1-.2-.3s0-.2.2-.5c-.4.4-.8.6-1.1.7,0,0-.1,0-.2,0,0,0,0,0,0,0,0,0,0,0,0,0,0,0,0,0,0,0,0,0-.2-.1-.2-.2,0,0,0-.2.1-.1.3,0,.6-.2.8-.5.2-.3.2-.6,0-.7-.2,0-.7.5-1.1,1.2-.2.5-.5,1.1-.6,1.3,0,0,0,0,0,0,0,0,0,0-.1,0-.1,0-.2-.1-.2-.3s.4-.7.7-1.3c-.6.7-1,.8-1.1.7-.1,0-.2-.2-.2-.3,0,0,0,0,0-.1-.4.5-.8.6-1,.5-.1,0-.2-.2-.2-.3s0-.3.1-.4c-.6.7-1.1.9-1.5.7-.3-.1-.5-.7-.1-1.5.5-.9,1.7-1.5,2.4-1.2.3,0,.4.3.4.4s-.1.2-.2.1c0,0-.2-.1-.3-.1-.7-.2-1.5.3-1.8,1-.3.5-.2.9,0,.9.3.1.9-.3,1.6-1.5,0-.1.1-.2.2-.2.1,0,.2.2.2.3s-.2.4-.4.7c-.2.4-.2.4,0,.5.1,0,.3-.1.8-.7,0-.2.2-.5.3-.7.4-1,.8-1.4,1.1-1.3.3,0,.4.4.1.8-.2.4-.6.8-1.2,1.5,0,.2,0,.3,0,.4.1,0,.7-.4,1.2-1.3,0-.1.1-.3.1-.4,0,0,0-.1.2,0,.1,0,.2.2.2.3,0,0,0,.2-.2.4.3-.4.6-.7.8-.6.3,0,.4.5.1,1.1,0,0,0,0,0,0,.3-.2.5-.5.7-.8,0,0,0-.2,0-.3,0,0,0-.1.1,0,.1,0,.2.1.2.3s-.2.3-.3.6c-.2.3-.3.5-.2.6,0,0,.7-.4,1.1-1.2,0,0,0-.1,0-.2,0,0,0-.1.1,0,.1,0,.2.1.2.2s0,.2-.2.4c.4-.4.8-.6.9-.6s.3.2.3.3-.7,1.2-.7,1.2c0,0,.3-.1.7-.7,0,0,0,0,0,0,.3-.4.6-.7,1-.7.2,0,.3,0,.4.2,0,0,0,0,0-.1,0,0,0-.1.2,0,0,0,.2.2.2.3,0,.1-.4.7-.5.9-.1.3-.2.4,0,.5.1,0,.3,0,.5-.4,0,0,.1,0,.1,0,0,0,0,.2,0,.3"/>
        </g>
      </g>
    </g>
  </g>
</svg>